<?xml version="1.0" encoding="utf-8"?>
<!-- Generator: Adobe Illustrator 26.3.1, SVG Export Plug-In . SVG Version: 6.00 Build 0)  -->
<svg version="1.1" id="Layer_1" xmlns="http://www.w3.org/2000/svg" xmlns:xlink="http://www.w3.org/1999/xlink" x="0px" y="0px"
	 width="324" height="343" viewBox="0 0 324 343" style="enable-background:new 0 0 324 343;" xml:space="preserve">
<style type="text/css">
	.st0{opacity:0.15;fill:#E5F7D3;enable-background:new    ;}
</style>
<path class="st0" d="M286.3,146.8l124.5-71.9c-4.5-6.5-10.2-12-17.2-15.9l-31.2-18L286.2,85L286.3,146.8L286.3,146.8z"/>
<path class="st0" d="M418.1,91.1l-131.8,76.1V229l133.5-77.1v-47.6C419.8,99.8,419.3,95.3,418.1,91.1z"/>
<path class="st0" d="M344.9,30.7L303.5,7c-16.2-9.3-36-9.3-52.3,0l-41.3,23.9l67.5,38.9L344.9,30.7z"/>
<path class="st0" d="M286.3,309.7h-17.6v-60.2l-133.7-77.2v30.2c0,18.6,10,35.9,26,45.2l107.4,62.1V343h17.7v-33.3H286.3l107.4-62.1
	c16.2-9.3,26-26.6,26-45.3v-30.2l-133.5,77.2v60.3H286.3z"/>
<path class="st0" d="M268.6,167.1L136.8,91.1c-1.1,4.2-1.7,8.7-1.7,13.2V152l133.5,77.2V167.1z"/>
<path class="st0" d="M268.6,85l-76.2-44.1l-31.3,18c-6.9,4-12.7,9.4-17.1,15.9l124.7,71.9L268.6,85z"/>
</svg>
