<?xml version="1.0" encoding="utf-8"?>
<!-- Generator: Adobe Illustrator 26.3.1, SVG Export Plug-In . SVG Version: 6.00 Build 0)  -->
<svg version="1.1" id="Warstwa_1" xmlns="http://www.w3.org/2000/svg" xmlns:xlink="http://www.w3.org/1999/xlink" x="0px" y="0px"
	 viewBox="0 0 241 58" style="enable-background:new 0 0 241 58;" xml:space="preserve">
<style type="text/css">
	.st0{fill:#FFFFFF;}
	.st1{fill:#79A94D;}
</style>
<g>
	<g>
		<g>
			<g>
				<g>
					<path class="st0" d="M106.1,46.6h-7.6v-23l-9.8,23h-5.2l-9.8-22.8v22.8h-7.7V9.2h8.5l11.6,27l11.6-27h8.6L106.1,46.6z"/>
					<path class="st0" d="M135.8,39.2h-14.9l-2.7,7.4h-7.9l14.1-37.4h8.1l14,37.4h-7.9L135.8,39.2z M133.2,32.3l-4.9-13.2l-4.9,13.2
						H133.2z"/>
					<path class="st0" d="M150.3,9.2h7.7v30.3h15.6v7.1h-23.3L150.3,9.2L150.3,9.2z"/>
					<path class="st0" d="M178,9.2h7.7v30.3h15.6v7.1H178L178,9.2L178,9.2z"/>
					<path class="st0" d="M211.3,44.6c-2.9-1.8-5.1-4.2-6.6-7.2c-1.5-3-2.3-6.2-2.3-9.6c0-3.5,0.8-6.7,2.3-9.6
						c1.5-3,3.7-5.3,6.6-7.1c2.9-1.8,6.3-2.7,10.3-2.7c4,0,7.4,0.9,10.3,2.7c2.9,1.8,5.1,4.2,6.6,7.1s2.3,6.2,2.3,9.6
						c0,3.4-0.8,6.6-2.3,9.6c-1.5,3-3.7,5.4-6.6,7.2c-2.9,1.8-6.3,2.7-10.3,2.7S214.2,46.4,211.3,44.6z M227.7,38.5
						c1.7-1.1,3.1-2.5,4-4.4c0.9-1.9,1.4-4,1.4-6.3c0-2.4-0.5-4.5-1.4-6.3c-0.9-1.9-2.2-3.3-4-4.4c-1.7-1.1-3.8-1.6-6.2-1.6
						c-2.4,0-4.4,0.5-6.2,1.6c-1.7,1.1-3,2.5-4,4.4c-0.9,1.9-1.4,4-1.4,6.3s0.5,4.5,1.4,6.3c0.9,1.9,2.2,3.3,4,4.4
						c1.7,1.1,3.8,1.6,6.2,1.6C223.9,40.1,226,39.6,227.7,38.5z"/>
				</g>
			</g>
		</g>
	</g>
	<g>
		<path class="st1" d="M26.2,24.9l21-12.1c-0.7-1.1-1.7-2-2.9-2.7l-5.3-3l-12.8,7.4V24.9z"/>
		<path class="st1" d="M48.4,15.5L26.2,28.3v10.4l22.5-13v-8C48.7,17,48.6,16.2,48.4,15.5z"/>
		<path class="st1" d="M36.1,5.4l-7-4c-2.7-1.6-6.1-1.6-8.8,0l-7,4l11.4,6.6L36.1,5.4z"/>
		<path class="st1" d="M26.2,52.3h-3V42.2l-22.5-13v5.1c0,3.1,1.7,6,4.4,7.6l18.1,10.4l0,5.6h3L26.2,52.3L26.2,52.3l18.1-10.4
			c2.7-1.6,4.4-4.5,4.4-7.6v-5.1l-22.5,13V52.3z"/>
		<path class="st1" d="M23.3,28.3L1,15.5c-0.2,0.7-0.3,1.5-0.3,2.2v8l22.5,13L23.3,28.3L23.3,28.3z"/>
		<path class="st1" d="M23.3,14.5L10.4,7.1l-5.3,3C4,10.8,3,11.7,2.3,12.8l21,12.1V14.5z"/>
	</g>
</g>
</svg>
