<?xml version="1.0" encoding="UTF-8"?>
<svg enable-background="new 0 0 240.5 60.7" version="1.1" viewBox="0 0 240.5 60.7" xml:space="preserve" xmlns="http://www.w3.org/2000/svg">
<style type="text/css">
	.st0{fill:#191E13;}
	.st1{fill:#79A94D;}
</style>
<path class="st0" d="m105.9 47.7h-7.6v-23l-9.8 23h-5.2l-9.8-22.8v22.8h-7.7v-37.4h8.5l11.6 27 11.6-27h8.6l-0.2 37.4z"/>
<path class="st0" d="m135.6 40.3h-14.9l-2.7 7.4h-8l14.1-37.4h8.1l14 37.4h-7.9l-2.7-7.4zm-2.6-6.9-4.9-13.2-4.9 13.2h9.8z"/>
<path class="st0" d="M150.1,10.3h7.7v30.3h15.6v7.1h-23.3V10.3z"/>
<path class="st0" d="M177.8,10.3h7.7v30.3h15.6v7.1h-23.3V10.3z"/>
<path class="st0" d="m211 45.7c-2.8-1.7-5.1-4.2-6.6-7.2s-2.3-6.3-2.3-9.6 0.8-6.6 2.3-9.6c1.5-2.9 3.8-5.4 6.6-7.1 2.9-1.8 6.3-2.7 10.3-2.7s7.4 0.9 10.3 2.7c2.8 1.7 5.1 4.2 6.6 7.1 1.5 3 2.3 6.3 2.3 9.6s-0.8 6.6-2.3 9.6-3.8 5.4-6.6 7.2c-2.9 1.8-6.3 2.7-10.3 2.7-3.9 0-7.4-0.9-10.3-2.7zm16.5-6.1c1.7-1.1 3.1-2.6 4-4.4 0.9-2 1.4-4.1 1.4-6.3s-0.4-4.3-1.4-6.3c-0.9-1.8-2.2-3.3-4-4.4-1.7-1.1-3.8-1.6-6.2-1.6s-4.4 0.5-6.2 1.6c-1.7 1.1-3.1 2.6-4 4.4-0.9 2-1.4 4.1-1.4 6.3s0.4 4.3 1.4 6.3c0.9 1.8 2.2 3.3 4 4.4 1.7 1.1 3.8 1.6 6.2 1.6 2.2 0.1 4.3-0.5 6.2-1.6z"/>
<path class="st1" d="M26,26l21-12.1c-0.7-1.1-1.7-2-2.9-2.7l-5.3-3L26,15.6V26z"/>
<path class="st1" d="m48.2 16.6-22.2 12.8v10.4l22.5-13v-8c0-0.7-0.1-1.5-0.3-2.2z"/>
<path class="st1" d="m35.9 6.5-7-4c-2.7-1.6-6.1-1.6-8.8 0l-7 4 11.4 6.5 11.4-6.5z"/>
<path class="st1" d="m26 53.4h-3v-10.1l-22.5-13v5.1c0 3.1 1.7 6 4.4 7.6l18.1 10.4v5.6h3v-5.6l18.1-10.4c2.7-1.6 4.4-4.5 4.4-7.6v-5.1l-22.5 13v10.1z"/>
<path class="st1" d="M23,29.4L0.8,16.6c-0.2,0.7-0.3,1.5-0.3,2.2v8l22.5,13V29.4z"/>
<path class="st1" d="M23,15.6L10.2,8.2l-5.3,3c-1.2,0.7-2.1,1.6-2.9,2.7L23,26V15.6z"/>
</svg>
