<?xml version="1.0" encoding="utf-8"?>
<!-- Generator: Adobe Illustrator 26.3.1, SVG Export Plug-In . SVG Version: 6.00 Build 0)  -->
<svg version="1.1" id="Layer_1" xmlns="http://www.w3.org/2000/svg" xmlns:xlink="http://www.w3.org/1999/xlink" x="0px" y="0px"
	 width="335" height="359" viewBox="0 0 335 359" style="enable-background:new 0 0 335 359;" xml:space="preserve">
<style type="text/css">
	.st0{fill:#E5F7D3;enable-background:new    ;}
</style>
<path class="st0" d="M50.1,154.4l130.3-75.3c-4.7-6.8-10.7-12.6-18-16.7l-32.7-18.9L50,89.7L50.1,154.4L50.1,154.4z"/>
<path class="st0" d="M188.1,96l-138,79.6v64.7l139.8-80.7v-49.8C189.9,105.1,189.3,100.5,188.1,96z"/>
<path class="st0" d="M111.4,32.9L68.1,8C51.2-1.7,30.4-1.7,13.3,8l-43.2,25l70.6,40.7L111.4,32.9z"/>
<path class="st0" d="M50.1,324.9H31.7v-63L-108.2,181v31.6c0,19.5,10.4,37.6,27.3,47.3l112.4,65v34.8H50L50.1,324.9L50.1,324.9
	l112.4-65c16.9-9.7,27.3-27.9,27.3-47.4v-31.6L50,261.7L50.1,324.9L50.1,324.9L50.1,324.9z"/>
<path class="st0" d="M31.6,175.6l-138-79.6c-1.2,4.4-1.8,9.1-1.8,13.8v50l139.8,80.8C31.6,240.6,31.6,175.6,31.6,175.6z"/>
<path class="st0" d="M31.6,89.7l-79.7-46.1l-32.8,18.9c-7.2,4.2-13.3,9.8-17.9,16.7l130.5,75.3L31.6,89.7z"/>
</svg>