<svg width="40" height="40" viewBox="0 0 40 40" fill="none" xmlns="http://www.w3.org/2000/svg">
<circle cx="20" cy="20" r="20" fill="#062A00"/>
<path d="M16.6562 26.4913C16.6562 26.7733 16.428 27 16.144 27H13.9787C13.6947 27 13.4665 26.7733 13.4665 26.4913V17.455C13.4665 17.1729 13.6947 16.9463 13.9787 16.9463H16.1491C16.4331 16.9463 16.6613 17.1729 16.6613 17.455V26.4913H16.6562ZM15.0639 16.095C13.9229 16.095 13 15.1783 13 14.05C13 12.9218 13.9229 12 15.0639 12C16.2049 12 17.1278 12.9167 17.1278 14.05C17.1278 15.1833 16.1998 16.095 15.0639 16.095ZM28 26.5366C28 26.7935 27.7921 27 27.5335 27H25.2059C24.9473 27 24.7394 26.7935 24.7394 26.5366V22.2955C24.7394 21.6608 24.927 19.5252 23.0761 19.5252C21.641 19.5252 21.3469 20.9909 21.2911 21.6457V26.5366C21.2911 26.7935 21.0832 27 20.8245 27H18.573C18.3144 27 18.1065 26.7935 18.1065 26.5366V17.4147C18.1065 17.1578 18.3144 16.9513 18.573 16.9513H20.8245C21.0832 16.9513 21.2911 17.1578 21.2911 17.4147V18.2055C21.8235 17.4097 22.6146 16.8002 24.2982 16.8002C28.0304 16.8002 28.0051 20.2606 28.0051 22.1645L28 26.5366Z" fill="white"/>
</svg>
