<svg width="40" height="40" viewBox="0 0 40 40" fill="none" xmlns="http://www.w3.org/2000/svg">
<circle cx="20" cy="20" r="20" fill="#062A00"/>
<path d="M28 15C27.4 15.3 26.8 15.4 26.1 15.5C26.8 15.1 27.3 14.5 27.5 13.7C26.9 14.1 26.2 14.3 25.4 14.5C24.8 13.9 23.9 13.5 23 13.5C21.3 13.5 19.8 15 19.8 16.8C19.8 17.1 19.8 17.3 19.9 17.5C17.2 17.4 14.7 16.1 13.1 14.1C12.8 14.6 12.7 15.1 12.7 15.8C12.7 16.9 13.3 17.9 14.2 18.5C13.7 18.5 13.2 18.3 12.7 18.1C12.7 19.7 13.8 21 15.3 21.3C15 21.4 14.7 21.4 14.4 21.4C14.2 21.4 14 21.4 13.8 21.3C14.2 22.6 15.4 23.6 16.9 23.6C15.8 24.5 14.4 25 12.8 25C12.5 25 12.3 25 12 25C13.5 25.9 15.2 26.5 17 26.5C23 26.5 26.3 21.5 26.3 17.2C26.3 17.1 26.3 16.9 26.3 16.8C27 16.3 27.6 15.7 28 15Z" fill="white"/>
</svg>
